<?xml version="1.0" encoding="utf-8"?>
<!-- Generator: Adobe Illustrator 15.1.0, SVG Export Plug-In . SVG Version: 6.00 Build 0)  -->
<!DOCTYPE svg PUBLIC "-//W3C//DTD SVG 1.1//EN" "http://www.w3.org/Graphics/SVG/1.1/DTD/svg11.dtd">
<svg version="1.1" id="Layer_1" xmlns="http://www.w3.org/2000/svg" xmlns:xlink="http://www.w3.org/1999/xlink" x="0px" y="0px"
	 width="216.6035156px" height="305.3417969px" viewBox="0 0 216.6035156 305.3417969"
	 enable-background="new 0 0 216.6035156 305.3417969" xml:space="preserve">
<g>
	<g>
		<path fill="#450D3A" stroke="#450D3A" stroke-width="7" stroke-miterlimit="10" d="M18.737793,265.2158203h5.1899414h5.1899414
			l-2.4453125,11.5507813l-2.4453125,11.5517578c-0.4746094,2.2197266-1.1733398,5.6005859-3.0375977,8.4267578
			c-1.8652344,2.8261719-4.8959961,5.0966797-10.0356445,5.0966797c-2.9189453,0-5.1396484-0.8232422-6.418457-2.6191406
			c-1.2792969-1.796875-1.6162109-4.5654297-0.7680664-8.4580078l0.5493164-2.5195313l0.5493164-2.5195313h1.8710938h1.8710938
			l-0.6987305,3.2177734l-0.6987305,3.2177734c-0.4492188,2.0703125-0.2993164,3.7050781,0.4238281,4.8212891
			c0.7236328,1.1162109,2.0209961,1.7158203,3.8671875,1.7158203c2.1459961,0,3.9174805-0.6113281,5.2900391-1.8652344
			c1.3720703-1.2539063,2.3447266-3.1503906,2.8925781-5.7207031l2.4208984-11.3769531l2.4208984-11.3759766h-3.3183594h-3.3183594
			l0.3242188-1.5712891L18.737793,265.2158203z"/>
		<path fill="#450D3A" stroke="#450D3A" stroke-width="7" stroke-miterlimit="10" d="M60.503418,265.2158203l-2.8193359,13.2480469
			l-2.8193359,13.2470703c-0.7226563,3.3935547-2.5317383,5.9267578-4.7646484,7.6103516
			c-2.2329102,1.6845703-4.890625,2.5205078-7.3105469,2.5205078c-1.9458008,0-4.315918-0.5488281-5.9379883-2.3388672
			c-1.621582-1.7910156-2.4951172-4.8222656-1.4477539-9.7871094l2.5957031-12.25l2.5957031-12.25h1.8701172h1.8701172
			l-2.8183594,13.2480469l-2.8183594,13.2470703c-0.5498047,2.5957031-0.0883789,4.3427734,0.8725586,5.4404297
			c0.9604492,1.0976563,2.4204102,1.546875,3.8676758,1.546875c2.2949219,0,4.0288086-0.8486328,5.2949219-2.2021484
			c1.2661133-1.3544922,2.0644531-3.2128906,2.4882813-5.2333984l2.7695313-13.0234375l2.7695313-13.0234375h1.8710938H60.503418z"
			/>
		<path fill="#450D3A" stroke="#450D3A" stroke-width="7" stroke-miterlimit="10" d="M72.3803711,281.0322266
			c1.3232422-0.1484375,3.855957-1.7832031,6.7504883-4.5957031c2.894043-2.8125,6.1499023-6.8046875,8.9194336-11.6699219
			l1.6464844,0.9726563l1.6464844,0.9726563l-1.9960938,2.4707031l-1.9960938,2.4697266
			c-3.2177734,3.9677734-5.5507813,6.4501953-7.4038086,8.1220703c-1.8525391,1.671875-3.2250977,2.5322266-4.5219727,3.2558594
			l5.8378906,9.0556641l5.8378906,9.0556641H84.605957h-2.4951172l-5.0644531-8.4570313l-5.0644531-8.4580078h-0.1494141h-0.1494141
			l-1.796875,8.4580078l-1.796875,8.4570313h-1.8710938H64.347168l3.8173828-17.9628906l3.8173828-17.9628906h1.8710938h1.8710938
			l-1.671875,7.9082031L72.3803711,281.0322266z"/>
		<path fill="#450D3A" stroke="#450D3A" stroke-width="7" stroke-miterlimit="10" d="M120.4370117,268.359375h-7.4609375h-7.4609375
			l-1.3720703,6.3876953l-1.3720703,6.3867188h5.3642578h5.3642578l-0.3242188,1.5722656l-0.3242188,1.5712891h-5.3652344
			h-5.3652344l-1.4726563,6.8603516l-1.4726563,6.8613281h7.6347656h7.6347656l-0.3232422,1.5712891l-0.3232422,1.5712891
			h-9.5058594h-9.5058594l3.8173828-17.9628906l3.8173828-17.9628906h9.3310547h9.3310547l-0.3232422,1.5722656
			L120.4370117,268.359375z"/>
		<path fill="#450D3A" stroke="#450D3A" stroke-width="7" stroke-miterlimit="10" d="M133.909668,268.359375l-1.3486328,6.2617188
			l-1.3486328,6.2617188h2.171875h2.171875c1.6708984,0,3.5541992-0.6103516,5.1323242-1.7578125
			c1.5776367-1.1474609,2.8500977-2.8310547,3.2993164-4.9765625c0.6240234-2.9697266-0.3115234-4.4169922-1.6899414-5.1220703
			c-1.3779297-0.7050781-3.1987305-0.6669922-4.3452148-0.6669922h-2.0214844H133.909668z M123.1791992,301.1416016
			l3.8173828-17.9628906l3.8173828-17.9628906h3.7675781h3.7675781c2.0712891,0,4.8535156,0.125,6.8930664,1.3222656
			c2.0400391,1.1972656,3.3374023,3.4667969,2.4389648,7.7578125c-0.3740234,1.7216797-1.1474609,3.2441406-2.2392578,4.5410156
			c-1.0917969,1.2978516-2.5019531,2.3710938-4.1494141,3.1953125c1.8466797,0.9980469,3.1816406,2.1708984,3.9301758,3.6738281
			s0.9106445,3.3359375,0.4116211,5.65625c-0.5478516,2.6201172-2.0195313,5.0644531-4.1401367,6.8544922
			s-4.8901367,2.9248047-8.0336914,2.9248047h-5.140625H123.1791992z M133.8608398,297.9990234
			c1.6708984,0,3.4291992-0.4863281,4.8881836-1.5332031c1.4594727-1.0478516,2.6196289-2.65625,3.0942383-4.9023438
			c0.4238281-1.9960938,0.1992188-3.8808594-0.8422852-5.2646484c-1.0415039-1.3847656-2.8999023-2.2705078-5.7436523-2.2705078
			h-2.3457031h-2.3457031l-1.4970703,6.9853516l-1.4970703,6.9853516h3.1445313H133.8608398z"/>
		<path fill="#450D3A" stroke="#450D3A" stroke-width="7" stroke-miterlimit="10" d="M173.8256836,283.1787109
			c0.3505859-1.6464844,1.2993164-5.5273438,1.1875-8.9951172s-1.2841797-6.5244141-5.1757813-6.5244141
			c-3.9921875,0-6.5249023,3.3554688-8.1157227,6.9736328s-2.2397461,7.4980469-2.4643555,8.5458984
			c-0.4238281,2.0458984-1.309082,5.9257813-1.152832,9.2939453c0.1557617,3.3681641,1.3530273,6.2255859,5.0942383,6.2255859
			c1.8710938,0,3.8295898-0.6240234,5.6694336-2.8759766S172.4291992,289.6904297,173.8256836,283.1787109z
			 M170.4838867,264.5166016c5.2392578,0,7.3730469,2.9941406,8.0161133,6.8242188
			c0.6425781,3.8300781-0.2055664,8.4951172-0.9301758,11.8378906c-0.4980469,2.3955078-1.4086914,7.0615234-3.6166992,11.1279297
			c-2.2084961,4.0673828-5.7143555,7.5351563-11.402832,7.5351563c-5.5390625,0-7.5722656-3.3925781-8.0834961-7.421875
			s0.4995117-8.6953125,1.0483398-11.2412109c1.5966797-7.5097656,3.8295898-12.1748047,6.4179688-14.9628906
			S167.465332,264.5166016,170.4838867,264.5166016z"/>
		<path fill="#450D3A" stroke="#450D3A" stroke-width="7" stroke-miterlimit="10" d="M211.6523438,268.359375h-5.1142578h-5.1142578
			l-3.4931641,16.3916016l-3.4936523,16.390625h-1.8710938h-1.8710938l3.4921875-16.390625l3.4921875-16.3916016h-5.0146484
			h-5.0146484l0.3242188-1.5712891l0.3242188-1.5722656h12.0024414h12.0019531l-0.3251953,1.5722656L211.6523438,268.359375z"/>
	</g>
	<g>
		<path fill="#760927" stroke="#760927" stroke-width="7" stroke-miterlimit="10" d="M18.7363281,221.8916016h5.1904297h5.1904297
			l-2.4453125,11.5507813l-2.4453125,11.5517578c-0.4746094,2.2207031-1.1733398,5.6015625-3.0380859,8.4267578
			c-1.8652344,2.8251953-4.8964844,5.0957031-10.0356445,5.0957031c-2.9189453,0-5.1391602-0.8232422-6.4179688-2.6191406
			c-1.2788086-1.796875-1.6157227-4.5654297-0.7675781-8.4570313l0.5493164-2.5205078l0.5493164-2.5205078h1.8706055h1.8710938
			l-0.6992188,3.21875l-0.6987305,3.21875c-0.4487305,2.0703125-0.2988281,3.7050781,0.425293,4.8212891
			c0.7236328,1.1162109,2.0209961,1.7158203,3.8671875,1.7158203c2.1455078,0,3.9169922-0.6113281,5.2890625-1.8652344
			s2.3452148-3.1503906,2.8945313-5.7197266l2.4194336-11.3759766l2.4194336-11.3769531h-3.3178711h-3.3178711l0.3237305-1.5722656
			L18.7363281,221.8916016z"/>
		<path fill="#760927" stroke="#760927" stroke-width="7" stroke-miterlimit="10" d="M60.5039063,221.8916016l-2.8193359,13.2480469
			l-2.8193359,13.2480469c-0.7236328,3.3935547-2.5327148,5.9257813-4.765625,7.609375
			c-2.2333984,1.6835938-4.8901367,2.5195313-7.3095703,2.5195313c-1.9467773,0-4.3173828-0.5488281-5.9389648-2.3388672
			s-2.4946289-4.8212891-1.4467773-9.7861328l2.5947266-12.25l2.5947266-12.25h1.8710938h1.8710938l-2.8193359,13.2480469
			l-2.8193359,13.2480469c-0.5488281,2.5947266-0.0874023,4.3417969,0.8730469,5.4394531
			c0.9609375,1.0976563,2.4204102,1.546875,3.8681641,1.546875c2.2954102,0,4.0292969-0.8486328,5.2954102-2.2021484
			c1.2661133-1.3544922,2.0644531-3.2128906,2.4887695-5.2333984l2.7695313-13.0234375l2.7695313-13.0234375h1.8710938H60.5039063z"
			/>
		<path fill="#760927" stroke="#760927" stroke-width="7" stroke-miterlimit="10" d="M72.3808594,237.7089844
			c1.3222656-0.1494141,3.8544922-1.7841797,6.7485352-4.5966797s6.1499023-6.8046875,8.9194336-11.6699219l1.6464844,0.9736328
			l1.6464844,0.9736328l-1.9960938,2.4697266l-1.9960938,2.4697266c-3.2177734,3.9667969-5.550293,6.4492188-7.402832,8.1210938
			c-1.8520508,1.6708984-3.2246094,2.53125-4.5219727,3.2548828l5.8383789,9.0566406l5.8383789,9.0566406h-2.4951172h-2.4951172
			l-5.0644531-8.4580078l-5.0644531-8.4570313h-0.1499023h-0.1499023l-1.7963867,8.4570313l-1.7963867,8.4580078H66.21875
			h-1.8710938l3.8173828-17.9638672l3.8173828-17.9628906h1.8710938h1.8710938l-1.671875,7.9082031L72.3808594,237.7089844z"/>
		<polygon fill="#760927" stroke="#760927" stroke-width="7" stroke-miterlimit="10" points="120.4355469,225.0361328 
			112.9746094,225.0361328 105.5136719,225.0361328 104.1416016,231.4228516 102.7695313,237.8095703 108.1347656,237.8095703 
			113.5,237.8095703 113.1748047,239.3808594 112.8496094,240.9521484 107.4853516,240.9521484 102.1210938,240.9521484 
			100.6494141,247.8134766 99.1777344,254.6748047 106.8115234,254.6748047 114.4453125,254.6748047 114.1220703,256.2470703 
			113.7988281,257.8183594 104.2929688,257.8183594 94.7871094,257.8183594 98.6035156,239.8544922 102.4199219,221.8916016 
			111.7519531,221.8916016 121.0839844,221.8916016 120.7597656,223.4638672 		"/>
		<path fill="#760927" stroke="#760927" stroke-width="7" stroke-miterlimit="10" d="M173.8261719,239.8544922
			c0.3496094-1.6464844,1.2983398-5.5263672,1.1865234-8.9941406s-1.2841797-6.5244141-5.1767578-6.5244141
			c-3.9912109,0-6.5253906,3.3554688-8.1171875,6.9736328c-1.5913086,3.6171875-2.2402344,7.4970703-2.4609375,8.5449219
			c-0.4306641,2.0449219-1.3164063,5.9238281-1.1591797,9.2929688c0.1577148,3.3691406,1.3583984,6.2265625,5.1005859,6.2265625
			c1.8710938,0,3.8295898-0.6240234,5.6694336-2.8759766C170.7084961,250.2470703,172.4296875,246.3662109,173.8261719,239.8544922z
			 M170.4824219,221.1923828c5.2402344,0,7.3676758,2.9921875,8.0073242,6.8222656
			c0.6396484,3.828125-0.2084961,8.4941406-0.9194336,11.8398438c-0.5087891,2.3925781-1.4194336,7.0585938-3.625,11.1259766
			s-5.7060547,7.5361328-11.3945313,7.5361328c-5.5390625,0-7.5722656-3.3925781-8.0839844-7.421875
			c-0.5112305-4.0292969,0.4990234-8.6953125,1.046875-11.2402344c1.5976563-7.5097656,3.8310547-12.1748047,6.4194336-14.9628906
			S167.4648438,221.1923828,170.4824219,221.1923828z"/>
		<polygon fill="#760927" stroke="#760927" stroke-width="7" stroke-miterlimit="10" points="211.6523438,225.0361328 
			206.5380859,225.0361328 201.4238281,225.0361328 197.9306641,241.4267578 194.4375,257.8183594 192.5664063,257.8183594 
			190.6953125,257.8183594 194.1875,241.4267578 197.6796875,225.0361328 192.6650391,225.0361328 187.6503906,225.0361328 
			187.9746094,223.4638672 188.2988281,221.8916016 200.3007813,221.8916016 212.3027344,221.8916016 211.9775391,223.4638672 		"/>
		<path fill="#760927" stroke="#760927" stroke-width="7" stroke-miterlimit="10" d="M134.1113281,225.0361328l-1.3466797,6.2617188
			l-1.3466797,6.2617188h2.1699219h2.1699219c1.6728516,0,3.5571289-0.6113281,5.1357422-1.7578125
			c1.578125-1.1474609,2.8505859-2.8320313,3.2998047-4.9775391c0.6230469-2.9697266-0.3134766-4.4160156-1.6923828-5.1210938
			c-1.3789063-0.7041016-3.2001953-0.6669922-4.3466797-0.6669922h-2.0214844H134.1113281z M123.3828125,257.8183594
			l3.8173828-17.9628906l3.8173828-17.9628906h3.7675781h3.7675781c2.0712891,0,4.8535156,0.125,6.8935547,1.3222656
			c2.0395508,1.1972656,3.3369141,3.4677734,2.4384766,7.7578125c-0.3740234,1.7216797-1.1474609,3.2431641-2.2392578,4.5400391
			c-1.0917969,1.2978516-2.5019531,2.3710938-4.1494141,3.1953125c1.8466797,0.9980469,3.1816406,2.1708984,3.9301758,3.6738281
			s0.9106445,3.3359375,0.4116211,5.65625c-0.5488281,2.6201172-2.0209961,5.0654297-4.1416016,6.8554688
			s-4.8896484,2.9248047-8.0322266,2.9248047h-5.140625H123.3828125z M134.0625,254.6748047
			c1.6708984,0,3.4296875-0.4863281,4.8896484-1.5332031c1.4594727-1.0478516,2.6201172-2.65625,3.0947266-4.9023438
			c0.4238281-1.9960938,0.1992188-3.8798828-0.8422852-5.2646484s-2.8999023-2.2705078-5.7436523-2.2705078h-2.3457031h-2.3457031
			l-1.4970703,6.9853516l-1.4970703,6.9853516h3.1435547H134.0625z"/>
	</g>
	<g>
		<path fill="#A80413" stroke="#A80413" stroke-width="7" stroke-miterlimit="10" d="M18.737793,178.5664063h5.1899414h5.1894531
			l-2.4453125,11.5517578l-2.4448242,11.5507813c-0.4741211,2.2207031-1.1728516,5.6015625-3.0375977,8.4277344
			c-1.8652344,2.8251953-4.8964844,5.0957031-10.0361328,5.0957031c-2.9189453,0-5.1396484-0.8232422-6.418457-2.6191406
			c-1.2788086-1.796875-1.6157227-4.5664063-0.7670898-8.4580078l0.5488281-2.5205078l0.5483398-2.5195313h1.871582h1.8710938
			l-0.6982422,3.21875l-0.6987305,3.2177734c-0.4487305,2.0712891-0.2993164,3.7050781,0.4238281,4.8212891
			c0.7236328,1.1171875,2.0209961,1.7158203,3.8671875,1.7158203c2.1459961,0,3.9174805-0.6113281,5.2895508-1.8652344
			s2.3452148-3.1494141,2.894043-5.7197266l2.4204102-11.3769531l2.4204102-11.3769531h-3.3188477h-3.3183594l0.3242188-1.5722656
			L18.737793,178.5664063z"/>
		<path fill="#A80413" stroke="#A80413" stroke-width="7" stroke-miterlimit="10" d="M60.5043945,178.5664063l-2.8203125,13.2480469
			L54.8637695,205.0625c-0.7226563,3.3935547-2.53125,5.9257813-4.7641602,7.6103516
			c-2.2329102,1.6835938-4.890625,2.5195313-7.3105469,2.5195313c-1.9453125,0-4.3154297-0.5488281-5.9375-2.3388672
			c-1.621582-1.7900391-2.4951172-4.8212891-1.4472656-9.7861328l2.5947266-12.25l2.5952148-12.2509766h1.8710938h1.8710938
			l-2.8198242,13.2480469L38.6972656,205.0625c-0.5488281,2.5947266-0.0869141,4.3408203,0.8740234,5.4394531
			c0.9604492,1.0976563,2.4199219,1.546875,3.8666992,1.546875c2.2954102,0,4.0297852-0.8486328,5.2958984-2.2011719
			c1.2661133-1.3535156,2.0639648-3.2119141,2.4882813-5.2333984l2.769043-13.0234375l2.769043-13.0244141h1.8720703H60.5043945z"/>
		<path fill="#A80413" stroke="#A80413" stroke-width="7" stroke-miterlimit="10" d="M72.3803711,194.3847656
			c1.3217773-0.1494141,3.8540039-1.7841797,6.7485352-4.5976563s6.1508789-6.8056641,8.9204102-11.6699219l1.6464844,0.9736328
			l1.6464844,0.9726563l-1.9960938,2.4697266l-1.9960938,2.4697266c-3.21875,3.9667969-5.5512695,6.4492188-7.4038086,8.1210938
			c-1.8520508,1.671875-3.2241211,2.5332031-4.5219727,3.2568359L81.262207,205.4375l5.8378906,9.0566406H84.605957h-2.4941406
			l-5.0654297-8.4580078l-5.0654297-8.4580078h-0.1489258h-0.1489258l-1.796875,8.4580078l-1.796875,8.4580078h-1.871582h-1.871582
			l3.8173828-17.9638672l3.8173828-17.9638672h1.871582h1.871582l-1.671875,7.9091797L72.3803711,194.3847656z"/>
		<polygon fill="#A80413" stroke="#A80413" stroke-width="7" stroke-miterlimit="10" points="120.434082,181.7099609 
			112.9750977,181.7099609 105.5161133,181.7099609 104.1430664,188.0966797 102.7700195,194.484375 108.1342773,194.484375 
			113.4985352,194.484375 113.1743164,196.0556641 112.8500977,197.6269531 107.4858398,197.6269531 102.121582,197.6269531 
			100.6499023,204.4892578 99.1782227,211.3505859 106.8129883,211.3505859 114.4477539,211.3505859 114.1235352,212.9228516 
			113.7993164,214.4941406 104.293457,214.4941406 94.7875977,214.4941406 98.6040039,196.5302734 102.4204102,178.5664063 
			111.7514648,178.5664063 121.0825195,178.5664063 120.7583008,180.1376953 		"/>
		<path fill="#A80413" stroke="#A80413" stroke-width="7" stroke-miterlimit="10" d="M173.8286133,196.5292969
			c0.3486328-1.6474609,1.2963867-5.5263672,1.184082-8.9941406s-1.284668-6.5244141-5.1762695-6.5244141
			c-3.9921875,0-6.5263672,3.3554688-8.1176758,6.9736328c-1.5917969,3.6171875-2.2407227,7.4970703-2.4624023,8.5449219
			c-0.4316406,2.0449219-1.3173828,5.9248047-1.1591797,9.2939453c0.1582031,3.3681641,1.3603516,6.2255859,5.1044922,6.2255859
			c1.8701172,0,3.828125-0.6240234,5.6679688-2.8759766S172.4311523,203.0419922,173.8286133,196.5292969z M170.4848633,177.8681641
			c5.2392578,0,7.3662109,2.9921875,8.0053711,6.8212891c0.6396484,3.8291016-0.2084961,8.4951172-0.9194336,11.8398438
			c-0.5087891,2.3935547-1.4194336,7.0595703-3.625,11.1269531s-5.7060547,7.5361328-11.3945313,7.5361328
			c-5.5380859,0-7.5712891-3.3925781-8.0825195-7.4228516c-0.5117188-4.0292969,0.4985352-8.6943359,1.0473633-11.2402344
			c1.5966797-7.5087891,3.8295898-12.1748047,6.4179688-14.9628906S167.4663086,177.8681641,170.4848633,177.8681641z"/>
		<polygon fill="#A80413" stroke="#A80413" stroke-width="7" stroke-miterlimit="10" points="211.6533203,181.7099609 
			206.5390625,181.7099609 201.4248047,181.7099609 197.9316406,198.1025391 194.4379883,214.4941406 192.5668945,214.4941406 
			190.6958008,214.4941406 194.1879883,198.1025391 197.6801758,181.7099609 192.6665039,181.7099609 187.652832,181.7099609 
			187.9770508,180.1376953 188.3012695,178.5664063 200.3017578,178.5664063 212.3017578,178.5664063 211.9775391,180.1376953 		"/>
		<path fill="#A80413" stroke="#A80413" stroke-width="7" stroke-miterlimit="10" d="M133.9458008,181.7685547l-1.3476563,6.2617188
			l-1.3476563,6.2626953h2.1708984h2.1708984c1.671875,0,3.5556641-0.6113281,5.1337891-1.7587891
			s2.8505859-2.8310547,3.2998047-4.9765625c0.6230469-2.9697266-0.3129883-4.4169922-1.6914063-5.1220703
			c-1.378418-0.7041016-3.1992188-0.6669922-4.3457031-0.6669922h-2.0214844H133.9458008z M123.2172852,214.5527344
			l3.8173828-17.9638672l3.8173828-17.9628906h3.7666016h3.7666016c2.0722656,0,4.8549805,0.125,6.8950195,1.3222656
			s3.3374023,3.4667969,2.4389648,7.7578125c-0.3740234,1.7216797-1.1479492,3.2431641-2.2397461,4.5410156
			c-1.0922852,1.296875-2.5024414,2.3710938-4.1489258,3.1953125c1.8466797,0.9980469,3.1816406,2.1699219,3.9301758,3.6738281
			c0.7485352,1.5029297,0.9106445,3.3359375,0.4116211,5.65625c-0.5488281,2.6191406-2.0209961,5.0644531-4.1416016,6.8544922
			s-4.8896484,2.9257813-8.0322266,2.9257813h-5.140625H123.2172852z M133.8969727,211.4082031
			c1.6708984,0,3.4296875-0.4863281,4.8891602-1.5332031c1.4599609-1.0478516,2.6206055-2.6572266,3.0952148-4.9023438
			c0.4228516-1.9960938,0.1982422-3.8798828-0.8432617-5.2646484s-2.8999023-2.2705078-5.7446289-2.2705078h-2.3457031h-2.3457031
			l-1.4960938,6.9853516l-1.4960938,6.9853516h3.1435547H133.8969727z"/>
	</g>
	<g>
		<path fill="#D90000" stroke="#D90000" stroke-width="7" stroke-miterlimit="10" d="M18.7382813,135.2431641h5.1899414h5.1899414
			l-2.4453125,11.5507813l-2.4453125,11.5507813c-0.4746094,2.2216797-1.1733398,5.6025391-3.0380859,8.4277344
			c-1.8647461,2.8261719-4.8955078,5.0957031-10.0351563,5.0957031c-2.9189453,0-5.1396484-0.8232422-6.418457-2.6191406
			c-1.2792969-1.796875-1.6166992-4.5654297-0.7685547-8.4570313l0.5493164-2.5205078l0.5493164-2.5205078h1.8710938h1.8710938
			l-0.6987305,3.21875l-0.6982422,3.21875c-0.4492188,2.0703125-0.2993164,3.7050781,0.4243164,4.8212891
			s2.0209961,1.7158203,3.8671875,1.7158203c2.1459961,0,3.9179688-0.6113281,5.2900391-1.8652344
			s2.3452148-3.1494141,2.8935547-5.71875l2.4199219-11.3769531l2.4199219-11.3769531h-3.3183594h-3.3183594l0.324707-1.5722656
			L18.7382813,135.2431641z"/>
		<path fill="#D90000" stroke="#D90000" stroke-width="7" stroke-miterlimit="10" d="M60.5043945,135.2431641l-2.8193359,13.2480469
			l-2.8193359,13.2480469c-0.7231445,3.3935547-2.5322266,5.9257813-4.7651367,7.609375
			c-2.2333984,1.6835938-4.890625,2.5195313-7.3100586,2.5195313c-1.9458008,0-4.315918-0.5488281-5.9379883-2.3388672
			s-2.4951172-4.8212891-1.4482422-9.7861328L38,147.4931641l2.5957031-12.25h1.8701172h1.8706055l-2.8188477,13.2480469
			l-2.8193359,13.2480469c-0.5488281,2.5947266-0.0874023,4.3417969,0.8730469,5.4394531
			c0.9609375,1.0976563,2.4204102,1.546875,3.8676758,1.546875c2.2954102,0,4.0292969-0.8476563,5.2954102-2.2011719
			c1.2666016-1.3535156,2.0649414-3.2128906,2.4887695-5.234375l2.769043-13.0234375l2.7695313-13.0234375h1.8710938H60.5043945z"/>
		<path fill="#D90000" stroke="#D90000" stroke-width="7" stroke-miterlimit="10" d="M72.3818359,151.0615234
			c1.3222656-0.1503906,3.8544922-1.7851563,6.7485352-4.5976563c2.894043-2.8134766,6.1499023-6.8046875,8.9194336-11.6699219
			l1.6469727,0.9726563l1.6469727,0.9736328l-1.9960938,2.4697266l-1.996582,2.4707031
			c-3.2182617,3.9667969-5.5507813,6.4492188-7.4033203,8.1201172c-1.8525391,1.671875-3.2250977,2.5322266-4.5224609,3.2548828
			l5.8383789,9.0576172l5.8383789,9.0576172h-2.4951172h-2.4951172l-5.0649414-8.4580078l-5.0644531-8.4580078h-0.1494141H71.684082
			l-1.7963867,8.4580078l-1.7963867,8.4580078h-1.871582h-1.8720703l3.8173828-17.9638672l3.8173828-17.9638672h1.8710938h1.871582
			l-1.6713867,7.9091797L72.3818359,151.0615234z"/>
		<path fill="#D90000" stroke="#D90000" stroke-width="7" stroke-miterlimit="10" d="M120.4375,138.3876953h-7.4609375h-7.4609375
			l-1.3720703,6.3857422l-1.3720703,6.3867188h5.3642578H113.5l-0.3242188,1.5712891l-0.3242188,1.5722656h-5.3642578h-5.3642578
			l-1.4726563,6.8613281l-1.4726563,6.8613281h7.6357422h7.6357422l-0.3251953,1.5722656l-0.3251953,1.5722656h-9.5058594
			h-9.5058594l3.8173828-17.9638672l3.8173828-17.9638672h9.3310547h9.3310547l-0.3232422,1.5722656L120.4375,138.3876953z"/>
		<path fill="#D90000" stroke="#D90000" stroke-width="7" stroke-miterlimit="10" d="M133.9101563,138.3876953l-1.3476563,6.2617188
			l-1.3476563,6.2617188h2.1708984h2.1708984c1.6708984,0,3.5541992-0.6113281,5.1318359-1.7587891
			c1.578125-1.1474609,2.8505859-2.8320313,3.2998047-4.9775391c0.6240234-2.96875-0.3115234-4.4160156-1.6894531-5.1201172
			c-1.378418-0.7050781-3.1992188-0.6669922-4.3457031-0.6669922h-2.0214844H133.9101563z M133.859375,168.0263672
			c1.6708984,0,3.4296875-0.4863281,4.8896484-1.5341797c1.4594727-1.0478516,2.6201172-2.6572266,3.0947266-4.9033203
			c0.4238281-1.9951172,0.1992188-3.8789063-0.8422852-5.2636719s-2.8999023-2.2714844-5.7436523-2.2714844h-2.3466797h-2.3466797
			l-1.4960938,6.9863281l-1.4960938,6.9863281h3.1435547H133.859375z M123.1816406,171.1708984l3.8164063-17.9638672
			l3.8164063-17.9638672h3.7675781h3.7675781c2.0712891,0,4.8535156,0.1240234,6.8935547,1.3222656
			c2.0395508,1.1972656,3.3369141,3.4677734,2.4384766,7.7597656c-0.3740234,1.7216797-1.1474609,3.2431641-2.2392578,4.5410156
			c-1.0913086,1.296875-2.5009766,2.3691406-4.1474609,3.1923828c1.8457031,0.9970703,3.1801758,2.1699219,3.9287109,3.6738281
			c0.7480469,1.5029297,0.9101563,3.3369141,0.4111328,5.6572266c-0.5478516,2.6201172-2.0200195,5.0654297-4.140625,6.8554688
			c-2.1210938,1.7910156-4.890625,2.9257813-8.0332031,2.9257813h-5.1396484H123.1816406z"/>
		<path fill="#D90000" stroke="#D90000" stroke-width="7" stroke-miterlimit="10" d="M173.8300781,153.2060547
			c0.3486328-1.6464844,1.2963867-5.5263672,1.184082-8.9941406s-1.284668-6.5244141-5.1762695-6.5244141
			c-3.9921875,0-6.5249023,3.3564453-8.1157227,6.9736328c-1.5908203,3.6181641-2.2397461,7.4980469-2.4643555,8.5449219
			c-0.4238281,2.0458984-1.3095703,5.9257813-1.1533203,9.2939453s1.3544922,6.2255859,5.0986328,6.2255859
			c1.8701172,0,3.828125-0.6230469,5.6679688-2.875S172.4326172,159.71875,173.8300781,153.2060547z M170.4863281,134.5449219
			c5.2392578,0,7.3720703,2.9941406,8.0146484,6.8232422c0.6420898,3.8300781-0.2060547,8.4951172-0.9287109,11.8378906
			c-0.4990234,2.3955078-1.409668,7.0605469-3.6176758,11.1279297c-2.2080078,4.0664063-5.7133789,7.5341797-11.4018555,7.5341797
			c-5.5390625,0-7.5722656-3.3925781-8.0834961-7.421875s0.4995117-8.6953125,1.0483398-11.2402344
			c1.5957031-7.5097656,3.8286133-12.1748047,6.4169922-14.9628906
			C164.5234375,135.4560547,167.4677734,134.5449219,170.4863281,134.5449219z"/>
		<path fill="#D90000" stroke="#D90000" stroke-width="7" stroke-miterlimit="10" d="M211.6542969,138.3876953h-5.1142578
			h-5.1142578l-3.4931641,16.3916016l-3.4931641,16.3916016h-1.8720703h-1.8720703l3.4931641-16.3916016l3.4931641-16.3916016
			h-5.0146484h-5.0146484l0.3242188-1.5722656l0.3242188-1.5722656h12.0009766h12.0009766l-0.3242188,1.5722656
			L211.6542969,138.3876953z"/>
	</g>
	<g>
		<path fill="#E62F00" stroke="#E62F00" stroke-width="7" stroke-miterlimit="10" d="M18.7382813,91.9189453h5.1894531h5.1899414
			l-2.4448242,11.5512695l-2.4453125,11.5512695c-0.4746094,2.2216797-1.1728516,5.6025391-3.0380859,8.4277344
			c-1.8647461,2.8251953-4.8955078,5.0957031-10.0356445,5.0957031c-2.9194336,0-5.1401367-0.8232422-6.418457-2.6191406
			c-1.2792969-1.7958984-1.6162109-4.5654297-0.7675781-8.4570313l0.5488281-2.5205078l0.5483398-2.5205078h1.871582h1.8720703
			l-0.6982422,3.2177734l-0.6987305,3.21875c-0.4492188,2.0712891-0.2998047,3.7050781,0.4238281,4.8222656
			c0.7231445,1.1162109,2.0200195,1.7148438,3.8662109,1.7148438c2.1459961,0,3.9179688-0.6113281,5.2905273-1.8652344
			c1.3720703-1.2539063,2.3452148-3.1494141,2.894043-5.71875l2.4199219-11.3769531l2.4199219-11.3764648h-3.3178711h-3.3183594
			l0.3242188-1.5727539L18.7382813,91.9189453z"/>
		<path fill="#E62F00" stroke="#E62F00" stroke-width="7" stroke-miterlimit="10" d="M60.5043945,91.9189453l-2.8198242,13.2480469
			l-2.8193359,13.2480469c-0.7236328,3.3945313-2.5322266,5.9267578-4.765625,7.6103516
			c-2.2324219,1.6845703-4.8896484,2.5195313-7.3095703,2.5195313c-1.9453125,0-4.3154297-0.5488281-5.9375-2.3388672
			c-1.621582-1.7890625-2.4951172-4.8203125-1.4477539-9.7851563L38,104.1699219l2.5947266-12.2509766h1.8710938h1.8706055
			l-2.8193359,13.2480469l-2.8193359,13.2480469c-0.5483398,2.5947266-0.0869141,4.3417969,0.8740234,5.4394531
			c0.9604492,1.0976563,2.4199219,1.546875,3.8666992,1.546875c2.2954102,0,4.0292969-0.8476563,5.2958984-2.2011719
			c1.2661133-1.3535156,2.0644531-3.2119141,2.4887695-5.2324219l2.769043-13.0244141l2.769043-13.0244141h1.871582H60.5043945z"/>
		<path fill="#E62F00" stroke="#E62F00" stroke-width="7" stroke-miterlimit="10" d="M72.3808594,107.7373047
			c1.3222656-0.1499023,3.8549805-1.7841797,6.7490234-4.597168c2.8945313-2.8129883,6.1503906-6.8051758,8.9194336-11.6694336
			l1.6469727,0.9736328l1.6464844,0.9731445l-1.9956055,2.4702148l-1.9956055,2.4697266
			c-3.21875,3.9658203-5.5517578,6.4482422-7.4042969,8.1201172c-1.8525391,1.6713867-3.2250977,2.5322266-4.5229492,3.2553711
			l5.8393555,9.0571289l5.8388672,9.0566406h-2.4951172h-2.4951172l-5.0654297-8.4580078l-5.0654297-8.4575195h-0.1489258
			h-0.1489258l-1.796875,8.4575195l-1.7963867,8.4580078H66.21875h-1.871582l3.8168945-17.9638672l3.8173828-17.9638672h1.871582
			h1.871582l-1.671875,7.9091797L72.3808594,107.7373047z"/>
		<polygon fill="#E62F00" stroke="#E62F00" stroke-width="7" stroke-miterlimit="10" points="120.4370117,95.0639648 
			112.9760742,95.0639648 105.5151367,95.0639648 104.1430664,101.4501953 102.7709961,107.8369141 108.1357422,107.8369141 
			113.5004883,107.8369141 113.1757813,109.4082031 112.8510742,110.9794922 107.4868164,110.9794922 102.1225586,110.9794922 
			100.6499023,117.8417969 99.1772461,124.7041016 106.8129883,124.7041016 114.4487305,124.7041016 114.1245117,126.2753906 
			113.800293,127.8466797 104.2939453,127.8466797 94.7880859,127.8466797 98.6054688,109.8828125 102.4223633,91.9189453 
			111.753418,91.9189453 121.0844727,91.9189453 120.7607422,93.4912109 		"/>
		<path fill="#E62F00" stroke="#E62F00" stroke-width="7" stroke-miterlimit="10" d="M133.9101563,95.0639648l-1.3476563,6.2617188
			l-1.3476563,6.2617188h2.1708984h2.1708984c1.671875,0,3.5551758-0.6113281,5.1328125-1.7587891
			c1.5776367-1.1479492,2.8496094-2.831543,3.2988281-4.9770508c0.6240234-2.96875-0.3115234-4.4155273-1.6899414-5.1201172
			c-1.378418-0.7050781-3.199707-0.6674805-4.347168-0.6674805h-2.0205078H133.9101563z M123.1811523,127.8466797
			l3.8168945-17.9638672l3.8164063-17.9638672h3.7675781h3.7675781c2.0712891,0,4.8618164,0.1264648,6.9057617,1.3251953
			c2.0439453,1.1982422,3.3413086,3.46875,2.4262695,7.7568359c-0.3671875,1.7231445-1.140625,3.2451172-2.2338867,4.5419922
			s-2.5063477,2.3691406-4.152832,3.1923828c1.8457031,0.9970703,3.1772461,2.1689453,3.9238281,3.671875
			c0.7470703,1.5029297,0.9091797,3.3378906,0.4160156,5.6601563c-0.5546875,2.6181641-2.0263672,5.0625-4.1455078,6.8535156
			c-2.1191406,1.7900391-4.8857422,2.9257813-8.0302734,2.9257813h-5.1386719H123.1811523z M133.859375,124.7041016
			c1.671875,0,3.4306641-0.4863281,4.8901367-1.5351563c1.4594727-1.0478516,2.6196289-2.6572266,3.0942383-4.9033203
			c0.4238281-1.9951172,0.1992188-3.8798828-0.8427734-5.2641602c-1.0415039-1.3852539-2.9003906-2.2714844-5.7451172-2.2714844
			h-2.3447266h-2.3447266l-1.4970703,6.9868164l-1.4970703,6.9873047h3.1435547H133.859375z"/>
		<path fill="#E62F00" stroke="#E62F00" stroke-width="7" stroke-miterlimit="10" d="M173.8300781,109.8828125
			c0.3496094-1.6464844,1.2978516-5.5258789,1.1855469-8.9941406c-0.1123047-3.4677734-1.2851563-6.5239258-5.1777344-6.5239258
			c-3.9921875,0-6.5263672,3.3554688-8.1176758,6.9731445c-1.5913086,3.6171875-2.2397461,7.4970703-2.4604492,8.5449219
			c-0.4316406,2.0449219-1.3173828,5.9248047-1.1591797,9.2929688c0.1577148,3.3681641,1.359375,6.2255859,5.1025391,6.2255859
			c1.8701172,0,3.828125-0.6230469,5.6679688-2.875S172.4326172,116.3955078,173.8300781,109.8828125z M170.4863281,91.2211914
			c5.2392578,0,7.3662109,2.9926758,8.0058594,6.8217773c0.6396484,3.8286133-0.2080078,8.4941406-0.9179688,11.8398438
			c-0.5087891,2.3925781-1.4199219,7.0585938-3.6259766,11.1259766c-2.2055664,4.0664063-5.7060547,7.5361328-11.3935547,7.5361328
			c-5.5400391,0-7.5737305-3.3935547-8.0854492-7.4228516s0.4985352-8.6943359,1.0463867-11.2392578
			c1.5976563-7.5097656,3.8310547-12.175293,6.4199219-14.9628906
			C164.5239258,92.1318359,167.4677734,91.2211914,170.4863281,91.2211914z"/>
		<polygon fill="#E62F00" stroke="#E62F00" stroke-width="7" stroke-miterlimit="10" points="211.6542969,95.0639648 
			206.5400391,95.0639648 201.4257813,95.0639648 197.9326172,111.4550781 194.4394531,127.8466797 192.5683594,127.8466797 
			190.6972656,127.8466797 194.1894531,111.4550781 197.6816406,95.0639648 192.6669922,95.0639648 187.6523438,95.0639648 
			187.9765625,93.4912109 188.3007813,91.9189453 200.3027344,91.9189453 212.3046875,91.9189453 211.9794922,93.4912109 		"/>
	</g>
	<g>
		<path fill="#F25D00" stroke="#F25D00" stroke-width="7" stroke-miterlimit="10" d="M18.7382813,48.5957031h5.1894531h5.1889648
			L26.671875,60.1469727l-2.4443359,11.5512695c-0.4746094,2.2216797-1.1733398,5.6020508-3.0380859,8.4277344
			c-1.8652344,2.8251953-4.8964844,5.0952148-10.0371094,5.0952148c-2.9189453,0-5.1391602-0.8232422-6.4179688-2.6191406
			c-1.2783203-1.7963867-1.6147461-4.5649414-0.7661133-8.456543L4.5166016,71.625l0.5488281-2.5205078h1.871582h1.871582
			l-0.6987305,3.2177734l-0.6987305,3.2182617c-0.4492188,2.0712891-0.2993164,3.7055664,0.4238281,4.8222656
			c0.7236328,1.1166992,2.0205078,1.715332,3.8666992,1.715332c2.1455078,0,3.9169922-0.6113281,5.2890625-1.8652344
			c1.3725586-1.253418,2.3457031-3.1494141,2.8950195-5.71875l2.4199219-11.3769531l2.4204102-11.3764648h-3.3183594h-3.3183594
			l0.324707-1.5727539L18.7382813,48.5957031z"/>
		<path fill="#F25D00" stroke="#F25D00" stroke-width="7" stroke-miterlimit="10" d="M60.5039063,48.5957031L57.6845703,61.84375
			l-2.8198242,13.2485352c-0.7241211,3.3935547-2.5327148,5.9257813-4.765625,7.6098633
			c-2.2329102,1.6835938-4.8896484,2.519043-7.3095703,2.519043c-1.9458008,0-4.3154297-0.5483398-5.9375-2.3383789
			c-1.621582-1.7900391-2.4951172-4.8208008-1.4477539-9.7856445l2.5947266-12.2504883l2.5942383-12.2509766h1.871582h1.8720703
			L41.5175781,61.84375l-2.8198242,13.2485352c-0.5483398,2.5947266-0.0869141,4.3413086,0.8735352,5.4389648
			c0.9609375,1.0976563,2.4199219,1.546875,3.8666992,1.546875c2.2954102,0,4.0297852-0.8481445,5.2958984-2.2016602
			C50,78.5234375,50.7983398,76.6650391,51.2231445,74.644043l2.769043-13.0239258l2.7685547-13.0244141h1.871582H60.5039063z"/>
		<path fill="#F25D00" stroke="#F25D00" stroke-width="7" stroke-miterlimit="10" d="M72.3808594,64.4140625
			c1.3222656-0.1503906,3.8544922-1.7841797,6.7490234-4.597168s6.1503906-6.8046875,8.9194336-11.6694336l1.6464844,0.9731445
			l1.6464844,0.9731445l-1.996582,2.4697266l-1.9960938,2.4702148C84.1318359,59,81.7988281,61.4824219,79.9467773,63.1542969
			c-1.8525391,1.6713867-3.2250977,2.5322266-4.5224609,3.2548828l5.8378906,9.0571289l5.8378906,9.0571289h-2.4936523h-2.4941406
			l-5.0654297-8.4580078l-5.0654297-8.4575195h-0.1494141h-0.1489258l-1.7963867,8.4575195l-1.7963867,8.4580078H66.21875
			h-1.8720703l3.8173828-17.9638672l3.8173828-17.9638672h1.8710938h1.871582l-1.6713867,7.9091797L72.3808594,64.4140625z"/>
		<polygon fill="#F25D00" stroke="#F25D00" stroke-width="7" stroke-miterlimit="10" points="120.4355469,51.7407227 
			112.9750977,51.7407227 105.5146484,51.7407227 104.1425781,58.1269531 102.7705078,64.5131836 108.1342773,64.5131836 
			113.4980469,64.5131836 113.1733398,66.0849609 112.8486328,67.6567383 107.4853516,67.6567383 102.1220703,67.6567383 
			100.6499023,74.5185547 99.1777344,81.3803711 106.8120117,81.3803711 114.4462891,81.3803711 114.1220703,82.9521484 
			113.7978516,84.5234375 104.2915039,84.5234375 94.7851563,84.5234375 98.6035156,66.5595703 102.421875,48.5957031 
			111.7529297,48.5957031 121.0839844,48.5957031 120.7597656,50.1679688 		"/>
		<path fill="#F25D00" stroke="#F25D00" stroke-width="7" stroke-miterlimit="10" d="M133.9091797,51.7407227l-1.3476563,6.2617188
			l-1.3476563,6.2617188h2.1708984h2.1708984c1.6713867,0,3.5551758-0.6113281,5.1333008-1.7592773
			c1.578125-1.1474609,2.8505859-2.831543,3.2993164-4.9770508c0.6240234-2.96875-0.3115234-4.4155273-1.6899414-5.1201172
			s-3.199707-0.6669922-4.347168-0.6669922h-2.0209961H133.9091797z M123.1816406,84.5234375l3.8164063-17.9638672
			l3.8164063-17.9638672h3.7680664h3.7680664c2.0708008,0,4.8613281,0.1264648,6.9047852,1.324707
			c2.0439453,1.1987305,3.3413086,3.4692383,2.4262695,7.7578125c-0.3676758,1.7231445-1.1411133,3.2446289-2.234375,4.5415039
			s-2.5063477,2.3691406-4.1533203,3.1923828c1.8461914,0.9975586,3.1782227,2.1694336,3.925293,3.6723633
			c0.7475586,1.5029297,0.909668,3.3374023,0.4165039,5.6591797c-0.5556641,2.6186523-2.0273438,5.0634766-4.1464844,6.8535156
			c-2.1191406,1.7905273-4.8852539,2.9262695-8.0292969,2.9262695h-5.1391602H123.1816406z M133.859375,81.3803711
			c1.671875,0,3.4306641-0.4868164,4.890625-1.534668c1.4594727-1.0478516,2.6196289-2.6572266,3.09375-4.902832
			c0.4238281-1.9956055,0.1992188-3.8793945-0.8422852-5.2646484c-1.0415039-1.3847656-2.9003906-2.2709961-5.7446289-2.2709961
			h-2.3461914h-2.3461914l-1.4960938,6.9863281l-1.4960938,6.9868164h3.1435547H133.859375z"/>
		<path fill="#F25D00" stroke="#F25D00" stroke-width="7" stroke-miterlimit="10" d="M173.8295898,66.5595703
			c0.3496094-1.6464844,1.2978516-5.5263672,1.1855469-8.9941406s-1.2851563-6.5244141-5.1777344-6.5244141
			c-3.9912109,0-6.5253906,3.3554688-8.1166992,6.9731445s-2.2402344,7.4970703-2.4609375,8.5454102
			c-0.4316406,2.0449219-1.3173828,5.9243164-1.159668,9.2929688c0.1582031,3.3681641,1.3598633,6.2255859,5.1025391,6.2255859
			c1.8701172,0,3.8286133-0.6235352,5.668457-2.875C170.7114258,76.9511719,172.4331055,73.0717773,173.8295898,66.5595703z
			 M170.4858398,47.8979492c5.2402344,0,7.3671875,2.9926758,8.0063477,6.8217773
			c0.6396484,3.8286133-0.2084961,8.4941406-0.918457,11.8398438c-0.5087891,2.3925781-1.4199219,7.0581055-3.6254883,11.1254883
			c-2.2060547,4.0668945-5.706543,7.5361328-11.394043,7.5361328c-5.5395508,0-7.5727539-3.3930664-8.0844727-7.4223633
			c-0.5117188-4.0288086,0.4985352-8.6943359,1.046875-11.2392578c1.597168-7.5097656,3.8300781-12.175293,6.418457-14.9628906
			C164.5234375,48.8085938,167.4672852,47.8979492,170.4858398,47.8979492z"/>
		<polygon fill="#F25D00" stroke="#F25D00" stroke-width="7" stroke-miterlimit="10" points="211.6533203,51.7407227 
			206.5390625,51.7407227 201.4248047,51.7407227 197.9326172,68.1318359 194.440918,84.5234375 192.5688477,84.5234375 
			190.6967773,84.5234375 194.1899414,68.1318359 197.6831055,51.7407227 192.6674805,51.7407227 187.6518555,51.7407227 
			187.9770508,50.1679688 188.3022461,48.5957031 200.3027344,48.5957031 212.3037109,48.5957031 211.9785156,50.1679688 		"/>
	</g>
	<g>
		<path fill="#FF8C00" stroke="#FF8C00" stroke-width="7" stroke-miterlimit="10" d="M18.737793,5.2719727h5.1889648h5.1894531
			L26.671875,16.8232422l-2.4448242,11.5512695c-0.4741211,2.2211914-1.1728516,5.6020508-3.0375977,8.4277344
			c-1.8652344,2.8256836-4.8964844,5.0957031-10.0371094,5.0957031c-2.9189453,0-5.1391602-0.8232422-6.4179688-2.6196289
			c-1.2783203-1.7958984-1.6152344-4.5654297-0.7666016-8.456543l0.5488281-2.5200195L5.0649414,25.78125h1.871582h1.871582
			L8.109375,28.9990234l-0.6982422,3.2182617c-0.4492188,2.0712891-0.2998047,3.7055664,0.4233398,4.8222656
			c0.7236328,1.1166992,2.0209961,1.715332,3.8671875,1.715332c2.1455078,0,3.9169922-0.6113281,5.2890625-1.8652344
			c1.3725586-1.2539063,2.3457031-3.1499023,2.8950195-5.7192383l2.4199219-11.3764648l2.4204102-11.3769531h-3.3183594h-3.3183594
			l0.3242188-1.5722656L18.737793,5.2719727z"/>
		<path fill="#FF8C00" stroke="#FF8C00" stroke-width="7" stroke-miterlimit="10" d="M60.5039063,5.2719727l-2.8193359,13.2485352
			L54.8647461,31.769043c-0.7241211,3.3935547-2.5327148,5.9257813-4.765625,7.6098633
			c-2.2329102,1.6835938-4.8901367,2.519043-7.3100586,2.519043c-1.9453125,0-4.3154297-0.5483398-5.9370117-2.3383789
			c-1.621582-1.7895508-2.4951172-4.8203125-1.4477539-9.7856445l2.5947266-12.2509766l2.5942383-12.2509766h1.871582h1.8720703
			l-2.8198242,13.2485352L38.6972656,31.769043c-0.5483398,2.5942383-0.0864258,4.3408203,0.8740234,5.4389648
			c0.9604492,1.0976563,2.4199219,1.546875,3.8666992,1.546875c2.2954102,0,4.0292969-0.8481445,5.2954102-2.2011719
			c1.2661133-1.3535156,2.0644531-3.2119141,2.4892578-5.2324219l2.769043-13.0244141l2.769043-13.0249023h1.871582H60.5039063z"/>
		<path fill="#FF8C00" stroke="#FF8C00" stroke-width="7" stroke-miterlimit="10" d="M72.3803711,21.0908203
			c1.3222656-0.1499023,3.8549805-1.7841797,6.7495117-4.597168c2.894043-2.8129883,6.1503906-6.8051758,8.9189453-11.6694336
			l1.6464844,0.9736328l1.6464844,0.9731445l-1.9960938,2.4697266l-1.9960938,2.4697266
			c-3.2177734,3.9663086-5.5507813,6.4487305-7.402832,8.1206055c-1.8525391,1.6713867-3.2250977,2.5322266-4.5224609,3.2553711
			l5.8378906,9.0571289l5.8378906,9.0566406H84.605957h-2.4941406l-5.0654297-8.4580078L71.980957,24.284668h-0.1489258h-0.1494141
			l-1.796875,8.4575195l-1.7963867,8.4580078h-1.871582h-1.8710938l3.8173828-17.9638672L71.980957,5.2719727h1.871582h1.871582
			l-1.671875,7.909668L72.3803711,21.0908203z"/>
		<path fill="#FF8C00" stroke="#FF8C00" stroke-width="7" stroke-miterlimit="10" d="M120.434082,8.4169922h-7.4599609h-7.4599609
			l-1.371582,6.3867188l-1.3720703,6.3862305h5.3632813h5.3637695l-0.324707,1.5717773l-0.324707,1.5712891h-5.3632813h-5.3632813
			l-1.472168,6.8623047l-1.4716797,6.8618164H106.8125h7.6342773l-0.324707,1.5717773l-0.324707,1.5712891h-9.5058594h-9.5058594
			l3.8178711-17.9638672l3.8183594-17.9643555h9.3310547h9.3305664l-0.324707,1.5727539L120.434082,8.4169922z"/>
		<path fill="#FF8C00" stroke="#FF8C00" stroke-width="7" stroke-miterlimit="10" d="M133.9086914,8.4169922l-1.347168,6.2617188
			l-1.347168,6.2617188h2.1708984h2.1708984c1.6713867,0,3.5551758-0.6113281,5.1328125-1.7587891
			c1.578125-1.1474609,2.8505859-2.831543,3.2998047-4.9770508c0.6230469-2.9682617-0.3129883-4.4155273-1.6914063-5.1201172
			s-3.199707-0.6674805-4.3476563-0.6674805h-2.0205078H133.9086914z M123.1801758,41.2001953l3.8173828-17.9638672
			l3.8173828-17.9643555h3.7675781h3.7675781c2.0712891,0,4.8530273,0.1245117,6.8930664,1.3222656
			c2.0390625,1.1977539,3.3364258,3.4682617,2.4379883,7.7602539c-0.3740234,1.7216797-1.1474609,3.2436523-2.2392578,4.5410156
			c-1.0913086,1.296875-2.5014648,2.3696289-4.1484375,3.1928711c1.8466797,0.9975586,3.1811523,2.1704102,3.9296875,3.6733398
			c0.7485352,1.5039063,0.9106445,3.3378906,0.4121094,5.6586914c-0.5493164,2.6196289-2.0214844,5.0649414-4.1420898,6.8549805
			c-2.1210938,1.7900391-4.890625,2.9248047-8.034668,2.9248047h-5.1391602H123.1801758z M133.8579102,38.0571289
			c1.671875,0,3.4311523-0.4868164,4.8911133-1.534668s2.6201172-2.6577148,3.0942383-4.9038086
			c0.4238281-1.9951172,0.199707-3.8789063-0.8422852-5.2641602c-1.0415039-1.3847656-2.9003906-2.2709961-5.7456055-2.2709961
			h-2.3452148h-2.3452148l-1.496582,6.9868164l-1.496582,6.9868164h3.1430664H133.8579102z"/>
		<path fill="#FF8C00" stroke="#FF8C00" stroke-width="7" stroke-miterlimit="10" d="M173.8295898,23.2358398
			c0.3496094-1.6459961,1.2983398-5.5258789,1.1860352-8.9936523s-1.284668-6.5239258-5.1772461-6.5239258
			c-3.9916992,0-6.5244141,3.355957-8.1152344,6.9736328c-1.590332,3.6176758-2.2392578,7.496582-2.4628906,8.5439453
			c-0.4238281,2.0463867-1.3095703,5.9262695-1.1538086,9.2944336c0.15625,3.3681641,1.3535156,6.2246094,5.0961914,6.2246094
			c1.8701172,0,3.828125-0.6235352,5.6679688-2.875C170.7104492,33.6279297,172.4321289,29.7480469,173.8295898,23.2358398z
			 M170.4858398,4.574707c5.2397461,0,7.3735352,2.9941406,8.0161133,6.8237305s-0.2060547,8.4951172-0.9301758,11.8374023
			c-0.4985352,2.3950195-1.4086914,7.0605469-3.6166992,11.1274414c-2.2080078,4.0664063-5.7133789,7.534668-11.4018555,7.534668
			c-5.5385742,0-7.5717773-3.3930664-8.0834961-7.4223633c-0.5112305-4.0292969,0.4990234-8.6943359,1.0473633-11.2397461
			c1.5966797-7.5092773,3.8295898-12.1748047,6.4179688-14.9628906
			C164.5234375,5.4853516,167.4672852,4.574707,170.4858398,4.574707z"/>
		<path fill="#FF8C00" stroke="#FF8C00" stroke-width="7" stroke-miterlimit="10" d="M211.6552734,8.4169922h-5.1152344h-5.1152344
			l-3.4921875,16.3916016l-3.4921875,16.3916016h-1.8720703h-1.8720703l3.4931641-16.3916016l3.4931641-16.3916016h-5.0146484
			h-5.0146484l0.3242188-1.5722656l0.3242188-1.5727539h12.0019531h12.0019531l-0.3251953,1.5727539L211.6552734,8.4169922z"/>
	</g>
</g>
</svg>
